# xmcd CD database file
#
# Track frame offsets:
#	150
#	24727
#	53519
#	74790
#	96712
#	119121
#	137974
#	161704
#	178765
#	204245
#	221936
#	248930
#	280360
#
# Disc length: 4138 seconds
#
# Revision: 0
# Processed by: cddbd v1.5.2PL0 Copyright (c) Steve Scherf et al.
# Submitted via: CDex 1.81
#
DISCID=dd10280d
DTITLE=Pablo Campos Trio - The Bare Necessities
DYEAR=2013
DGENRE=Jazz
TTITLE0=Come fly with me
TTITLE1=The bare necessities
TTITLE2=You don't know me
TTITLE3=Blues etude
TTITLE4=I don't know enough about you
TTITLE5=But for now
TTITLE6=Fungii Mama
TTITLE7=Frime fram sauce
TTITLE8=That's all
TTITLE9=Rainbow connection
TTITLE10=That old black magic
TTITLE11=Crazy she call's me
TTITLE12=Oscar's will
EXTD=YEAR: 2013
EXTT0=
EXTT1=
EXTT2=
EXTT3=
EXTT4=
EXTT5=
EXTT6=
EXTT7=
EXTT8=
EXTT9=
EXTT10=
EXTT11=
EXTT12=
PLAYORDER=
